<svg width="66" height="66" viewBox="0 0 66 66" fill="none" xmlns="http://www.w3.org/2000/svg">
  <g filter="url(#filter0_d_7520_1605)">
    <rect x="20" y="16" width="26" height="26" rx="6" fill="#2C3E50" />
    <path d="M33 29.8465C32.9122 29.8465 32.8243 29.827 32.7432 29.7814L26.777 26.454C26.5405 26.3172 26.4527 26.0177 26.5946 25.7833C26.7365 25.5488 27.0473 25.4707 27.2905 25.6074L33 28.7916L38.6757 25.627C38.9189 25.4902 39.2297 25.5749 39.3716 25.8028C39.5135 26.0372 39.4257 26.3367 39.1892 26.4735L33.2635 29.7814C33.1757 29.8205 33.0878 29.8465 33 29.8465Z" fill="white" />
    <path d="M33 35.746C32.723 35.746 32.4932 35.5247 32.4932 35.2577V29.3516C32.4932 29.0847 32.723 28.8633 33 28.8633C33.277 28.8633 33.5068 29.0847 33.5068 29.3516V35.2577C33.5068 35.5247 33.277 35.746 33 35.746Z" fill="white" />
    <path d="M33 36C32.4054 36 31.8176 35.8763 31.3514 35.6288L27.7432 33.6949C26.7635 33.174 26 31.9172 26 30.8363V27.1572C26 26.0763 26.7635 24.826 27.7432 24.2986L31.3514 22.3712C32.277 21.8763 33.723 21.8763 34.6486 22.3712L38.2568 24.3051C39.2365 24.826 40 26.0828 40 27.1637V30.8428C40 31.9237 39.2365 33.174 38.2568 33.7014L34.6486 35.6288C34.1824 35.8763 33.5946 36 33 36ZM33 22.9767C32.5743 22.9767 32.1554 23.0614 31.8446 23.2242L28.2365 25.1581C27.5878 25.5033 27.0135 26.4409 27.0135 27.1572V30.8363C27.0135 31.5526 27.5878 32.4902 28.2365 32.8419L31.8446 34.7758C32.4595 35.1079 33.5405 35.1079 34.1554 34.7758L37.7635 32.8419C38.4122 32.4902 38.9865 31.5591 38.9865 30.8363V27.1572C38.9865 26.4409 38.4122 25.5033 37.7635 25.1516L34.1554 23.2177C33.8446 23.0614 33.4257 22.9767 33 22.9767Z" fill="white" />
  </g>
  <defs>
    <filter id="filter0_d_7520_1605" x="0" y="0" width="66" height="66" filterUnits="userSpaceOnUse" color-interpolation-filters="sRGB">
      <feFlood flood-opacity="0" result="BackgroundImageFix" />
      <feColorMatrix in="SourceAlpha" type="matrix" values="0 0 0 0 0 0 0 0 0 0 0 0 0 0 0 0 0 0 127 0" result="hardAlpha" />
      <feOffset dy="4" />
      <feGaussianBlur stdDeviation="10" />
      <feComposite in2="hardAlpha" operator="out" />
      <feColorMatrix type="matrix" values="0 0 0 0 0 0 0 0 0 0 0 0 0 0 0 0 0 0 0.05 0" />
      <feBlend mode="normal" in2="BackgroundImageFix" result="effect1_dropShadow_7520_1605" />
      <feBlend mode="normal" in="SourceGraphic" in2="effect1_dropShadow_7520_1605" result="shape" />
    </filter>
  </defs>
</svg>