<svg width="23" height="23" viewBox="0 0 23 23" fill="none" xmlns="http://www.w3.org/2000/svg">
<path d="M10.3886 12.976H8.9511C7.84901 12.976 6.95776 12.056 6.95776 10.9156C6.95776 10.5226 7.2836 10.1968 7.67651 10.1968C8.06943 10.1968 8.39526 10.5226 8.39526 10.9156C8.39526 11.2606 8.64443 11.5385 8.9511 11.5385H10.3886C10.609 11.5385 10.7815 11.3372 10.7815 11.0881C10.7815 10.7526 10.724 10.7335 10.5036 10.6568L8.19401 9.85181C7.36026 9.56431 6.94818 8.97973 6.94818 8.06931C6.94818 7.03431 7.77235 6.1814 8.7786 6.1814H10.2161C11.3182 6.1814 12.2094 7.1014 12.2094 8.24181C12.2094 8.63473 11.8836 8.96056 11.4907 8.96056C11.0978 8.96056 10.7719 8.63473 10.7719 8.24181C10.7719 7.89681 10.5228 7.6189 10.2161 7.6189H8.7786C8.55818 7.6189 8.38568 7.82015 8.38568 8.06931C8.38568 8.40473 8.44318 8.4239 8.6636 8.50056L10.9732 9.30556C11.8069 9.60265 12.2094 10.1872 12.2094 11.0881C12.219 12.1326 11.3948 12.976 10.3886 12.976Z" fill="white"/>
<path d="M9.58307 13.7419C9.19015 13.7419 8.86432 13.4161 8.86432 13.0232V12.314C8.86432 11.9211 9.19015 11.5953 9.58307 11.5953C9.97599 11.5953 10.3018 11.9211 10.3018 12.314V13.0232C10.3018 13.4257 9.97599 13.7419 9.58307 13.7419Z" fill="white"/>
<path d="M9.58307 7.60895C9.19015 7.60895 8.86432 7.28312 8.86432 6.8902V6.1427C8.86432 5.74978 9.19015 5.42395 9.58307 5.42395C9.97599 5.42395 10.3018 5.74978 10.3018 6.1427V6.8902C10.3018 7.28312 9.97599 7.60895 9.58307 7.60895Z" fill="white"/>
<path d="M9.57401 17.9398C4.95485 17.9398 1.19818 14.1831 1.19818 9.56394C1.19818 4.94478 4.95485 1.18811 9.57401 1.18811C14.1932 1.18811 17.9498 4.94478 17.9498 9.56394C17.9498 14.1831 14.1836 17.9398 9.57401 17.9398ZM9.57401 2.63519C5.75026 2.63519 2.63568 5.74978 2.63568 9.57353C2.63568 13.3973 5.75026 16.5023 9.57401 16.5023C13.3978 16.5023 16.5123 13.3877 16.5123 9.56394C16.5123 5.74019 13.3978 2.63519 9.57401 2.63519Z" fill="white"/>
<path d="M16.3106 21.7738C14.5377 21.7738 12.8702 20.9113 11.8448 19.4546C11.6148 19.1288 11.6915 18.6784 12.0173 18.4484C12.3431 18.2184 12.7935 18.295 13.0235 18.6209C13.7806 19.6942 15.0073 20.3267 16.3106 20.3267C18.534 20.3267 20.3356 18.525 20.3356 16.3017C20.3356 15.008 19.7031 13.7813 18.649 13.0242C18.3231 12.7942 18.2561 12.3438 18.4861 12.018C18.7161 11.6921 19.1665 11.625 19.4923 11.855C20.9202 12.8805 21.7731 14.5384 21.7731 16.3017C21.7731 19.33 19.3294 21.7738 16.3106 21.7738Z" fill="white"/>
</svg>
