<svg width="20" height="20" viewBox="0 0 20 20" fill="none" xmlns="http://www.w3.org/2000/svg">
<path d="M18.3333 15.2084H12.5C12.1583 15.2084 11.875 14.925 11.875 14.5834C11.875 14.2417 12.1583 13.9584 12.5 13.9584H18.3333C18.675 13.9584 18.9583 14.2417 18.9583 14.5834C18.9583 14.925 18.675 15.2084 18.3333 15.2084Z" fill="white"/>
<path d="M4.16666 15.2084H1.66666C1.325 15.2084 1.04166 14.925 1.04166 14.5834C1.04166 14.2417 1.325 13.9584 1.66666 13.9584H4.16666C4.50833 13.9584 4.79166 14.2417 4.79166 14.5834C4.79166 14.925 4.50833 15.2084 4.16666 15.2084Z" fill="white"/>
<path d="M18.3333 6.04163H15.8333C15.4917 6.04163 15.2083 5.75829 15.2083 5.41663C15.2083 5.07496 15.4917 4.79163 15.8333 4.79163H18.3333C18.675 4.79163 18.9583 5.07496 18.9583 5.41663C18.9583 5.75829 18.675 6.04163 18.3333 6.04163Z" fill="white"/>
<path d="M7.5 6.04163H1.66666C1.325 6.04163 1.04166 5.75829 1.04166 5.41663C1.04166 5.07496 1.325 4.79163 1.66666 4.79163H7.5C7.84166 4.79163 8.125 5.07496 8.125 5.41663C8.125 5.75829 7.84166 6.04163 7.5 6.04163Z" fill="white"/>
<path d="M10.8333 17.7084H5.83333C4.4 17.7084 3.54166 16.85 3.54166 15.4167V13.75C3.54166 12.3167 4.4 11.4584 5.83333 11.4584H10.8333C12.2667 11.4584 13.125 12.3167 13.125 13.75V15.4167C13.125 16.85 12.2667 17.7084 10.8333 17.7084ZM5.83333 12.7084C5.09166 12.7084 4.79166 13.0084 4.79166 13.75V15.4167C4.79166 16.1584 5.09166 16.4584 5.83333 16.4584H10.8333C11.575 16.4584 11.875 16.1584 11.875 15.4167V13.75C11.875 13.0084 11.575 12.7084 10.8333 12.7084H5.83333Z" fill="white"/>
<path d="M14.1667 8.54169H9.16667C7.73333 8.54169 6.875 7.68335 6.875 6.25002V4.58335C6.875 3.15002 7.73333 2.29169 9.16667 2.29169H14.1667C15.6 2.29169 16.4583 3.15002 16.4583 4.58335V6.25002C16.4583 7.68335 15.6 8.54169 14.1667 8.54169ZM9.16667 3.54169C8.425 3.54169 8.125 3.84169 8.125 4.58335V6.25002C8.125 6.99169 8.425 7.29169 9.16667 7.29169H14.1667C14.9083 7.29169 15.2083 6.99169 15.2083 6.25002V4.58335C15.2083 3.84169 14.9083 3.54169 14.1667 3.54169H9.16667Z" fill="white"/>
</svg>
