<svg width="66" height="66" viewBox="0 0 66 66" fill="none" xmlns="http://www.w3.org/2000/svg">
  <g filter="url(#filter0_d_7592_5043)">
    <rect x="20" y="16" width="26" height="26" rx="6" fill="#2C3E50" />
    <path d="M27.4865 33.3953C27.2205 33.3953 27 33.174 27 32.907V25.7442C27 22.8726 27.8692 22 30.7297 22H35.2703C38.1308 22 39 22.8726 39 25.7442V32.2558C39 32.36 39 32.4577 38.9935 32.5619C38.9741 32.8288 38.7341 33.0372 38.4746 33.0177C38.2086 32.9981 38.0011 32.7637 38.0205 32.4967C38.027 32.4186 38.027 32.334 38.027 32.2558V25.7442C38.027 23.4195 37.5924 22.9767 35.2703 22.9767H30.7297C28.4076 22.9767 27.973 23.4195 27.973 25.7442V32.907C27.973 33.174 27.7524 33.3953 27.4865 33.3953Z" fill="white" />
    <path d="M36.2432 36H29.7568C28.2389 36 27 34.7563 27 33.2326V32.8093C27 31.5135 28.0508 30.4651 29.3351 30.4651H38.5135C38.7795 30.4651 39 30.6865 39 30.9535V33.2326C39 34.7563 37.7611 36 36.2432 36ZM29.3351 31.4419C28.5827 31.4419 27.973 32.054 27.973 32.8093V33.2326C27.973 34.2223 28.7708 35.0233 29.7568 35.0233H36.2432C37.2292 35.0233 38.027 34.2223 38.027 33.2326V31.4419H29.3351Z" fill="white" />
    <path d="M35.5946 26.2326H30.4054C30.1395 26.2326 29.9189 26.0112 29.9189 25.7442C29.9189 25.4772 30.1395 25.2558 30.4054 25.2558H35.5946C35.8605 25.2558 36.0811 25.4772 36.0811 25.7442C36.0811 26.0112 35.8605 26.2326 35.5946 26.2326Z" fill="white" />
    <path d="M33.6486 28.5116H30.4054C30.1395 28.5116 29.9189 28.2902 29.9189 28.0233C29.9189 27.7563 30.1395 27.5349 30.4054 27.5349H33.6486C33.9146 27.5349 34.1351 27.7563 34.1351 28.0233C34.1351 28.2902 33.9146 28.5116 33.6486 28.5116Z" fill="white" />
  </g>
  <defs>
    <filter id="filter0_d_7592_5043" x="0" y="0" width="66" height="66" filterUnits="userSpaceOnUse" color-interpolation-filters="sRGB">
      <feFlood flood-opacity="0" result="BackgroundImageFix" />
      <feColorMatrix in="SourceAlpha" type="matrix" values="0 0 0 0 0 0 0 0 0 0 0 0 0 0 0 0 0 0 127 0" result="hardAlpha" />
      <feOffset dy="4" />
      <feGaussianBlur stdDeviation="10" />
      <feComposite in2="hardAlpha" operator="out" />
      <feColorMatrix type="matrix" values="0 0 0 0 0 0 0 0 0 0 0 0 0 0 0 0 0 0 0.05 0" />
      <feBlend mode="normal" in2="BackgroundImageFix" result="effect1_dropShadow_7592_5043" />
      <feBlend mode="normal" in="SourceGraphic" in2="effect1_dropShadow_7592_5043" result="shape" />
    </filter>
  </defs>
</svg>