<svg width="66" height="66" viewBox="0 0 66 66" fill="none" xmlns="http://www.w3.org/2000/svg">
  <g filter="url(#filter0_d_7592_5045)">
    <rect x="20" y="16" width="26" height="26" rx="6" fill="#2C3E50" />
    <path d="M38.6393 29.7089C38.3907 29.7089 38.1813 29.5177 38.1486 29.2671C37.9916 27.7767 37.1935 26.4249 35.9636 25.5676C35.7411 25.4093 35.6888 25.106 35.8393 24.8818C35.9963 24.6576 36.3037 24.6048 36.5196 24.7565C37.985 25.7786 38.9271 27.3877 39.1168 29.1616C39.143 29.4319 38.9533 29.6759 38.6785 29.7089C38.672 29.7089 38.6523 29.7089 38.6393 29.7089Z" fill="white" />
    <path d="M27.4327 29.7419C27.4131 29.7419 27.4 29.7419 27.3804 29.7419C27.1121 29.7089 26.9159 29.4649 26.9421 29.1945C27.1187 27.4206 28.0542 25.8182 29.5 24.7829C29.7224 24.6246 30.0299 24.6773 30.1869 24.9016C30.3439 25.1258 30.2916 25.4357 30.0692 25.594C28.8523 26.4578 28.0673 27.8097 27.9168 29.3C27.8972 29.5506 27.6813 29.7419 27.4327 29.7419Z" fill="white" />
    <path d="M33.0393 36C32.071 36 31.1486 35.7758 30.285 35.3406C30.043 35.2153 29.9449 34.9185 30.0692 34.6745C30.1935 34.4305 30.4879 34.3316 30.7299 34.4569C32.143 35.1757 33.8439 35.1889 35.2701 34.4965C35.5121 34.3778 35.8065 34.4833 35.9243 34.7273C36.0421 34.9713 35.9374 35.268 35.6953 35.3867C34.8579 35.7956 33.9682 36 33.0393 36Z" fill="white" />
    <path d="M33.0393 26.6557C31.7636 26.6557 30.7299 25.6138 30.7299 24.3278C30.7299 23.0419 31.7636 22 33.0393 22C34.315 22 35.3486 23.0419 35.3486 24.3278C35.3486 25.6138 34.3084 26.6557 33.0393 26.6557ZM33.0393 22.9958C32.3065 22.9958 31.7112 23.5959 31.7112 24.3344C31.7112 25.073 32.3065 25.6731 33.0393 25.6731C33.772 25.6731 34.3673 25.073 34.3673 24.3344C34.3673 23.5959 33.7654 22.9958 33.0393 22.9958Z" fill="white" />
    <path d="M28.3093 34.7207C27.0336 34.7207 26 33.6788 26 32.3928C26 31.1135 27.0336 30.065 28.3093 30.065C29.585 30.065 30.6187 31.1069 30.6187 32.3928C30.6187 33.6722 29.585 34.7207 28.3093 34.7207ZM28.3093 31.0542C27.5766 31.0542 26.9813 31.6543 26.9813 32.3928C26.9813 33.1314 27.5766 33.7315 28.3093 33.7315C29.0421 33.7315 29.6374 33.1314 29.6374 32.3928C29.6374 31.6543 29.0421 31.0542 28.3093 31.0542Z" fill="white" />
    <path d="M37.6907 34.7207C36.415 34.7207 35.3813 33.6788 35.3813 32.3928C35.3813 31.1135 36.415 30.065 37.6907 30.065C38.9664 30.065 40 31.1069 40 32.3928C39.9935 33.6722 38.9598 34.7207 37.6907 34.7207ZM37.6907 31.0542C36.9579 31.0542 36.3626 31.6543 36.3626 32.3928C36.3626 33.1314 36.9579 33.7315 37.6907 33.7315C38.4234 33.7315 39.0187 33.1314 39.0187 32.3928C39.0121 31.6543 38.4234 31.0542 37.6907 31.0542Z" fill="white" />
  </g>
  <defs>
    <filter id="filter0_d_7592_5045" x="0" y="0" width="66" height="66" filterUnits="userSpaceOnUse" color-interpolation-filters="sRGB">
      <feFlood flood-opacity="0" result="BackgroundImageFix" />
      <feColorMatrix in="SourceAlpha" type="matrix" values="0 0 0 0 0 0 0 0 0 0 0 0 0 0 0 0 0 0 127 0" result="hardAlpha" />
      <feOffset dy="4" />
      <feGaussianBlur stdDeviation="10" />
      <feComposite in2="hardAlpha" operator="out" />
      <feColorMatrix type="matrix" values="0 0 0 0 0 0 0 0 0 0 0 0 0 0 0 0 0 0 0.05 0" />
      <feBlend mode="normal" in2="BackgroundImageFix" result="effect1_dropShadow_7592_5045" />
      <feBlend mode="normal" in="SourceGraphic" in2="effect1_dropShadow_7592_5045" result="shape" />
    </filter>
  </defs>
</svg>