<svg width="145" height="33" viewBox="0 0 145 33" fill="none" xmlns="http://www.w3.org/2000/svg">
<rect width="145" height="33" rx="4.46602" fill="#F3F3F3"/>
<path d="M13.6339 28.3593C13.623 28.3593 13.6122 28.3593 13.5905 28.3593C11.7677 28.3484 10.4656 26.7032 9.54336 25.2758C7.18887 21.6475 6.71147 17.0821 8.41494 14.4344C9.55421 12.6584 11.3987 11.5579 13.2216 11.5579C14.1655 11.5579 14.9033 11.8194 15.5544 12.0591C16.0752 12.2444 16.52 12.4078 16.9866 12.4078C17.3989 12.4078 17.7569 12.2662 18.2126 12.0918C18.842 11.8521 19.6123 11.5579 20.7299 11.5579C22.3357 11.5579 23.9849 12.4187 25.1351 13.8787C25.287 14.064 25.3412 14.3146 25.2978 14.5434C25.2544 14.7831 25.1025 14.9792 24.8964 15.0991C23.6703 15.7746 22.9976 17.0058 23.0952 18.4005C23.1929 19.817 24.0609 21.0155 25.3629 21.5058C25.5691 21.5821 25.7427 21.7455 25.8295 21.9526C25.9163 22.1596 25.9163 22.3993 25.8186 22.5954C25.3412 23.6632 25.1025 24.1535 24.4841 25.1123C23.4533 26.7031 22.1513 28.3375 20.3718 28.3593C19.6015 28.3593 19.0807 28.1305 18.625 27.9126C18.1693 27.7056 17.7244 27.5421 17.0191 27.5203C16.2596 27.5203 15.8582 27.7056 15.3916 27.9126C14.9142 28.1305 14.3934 28.3593 13.6339 28.3593ZM13.2216 13.1923C11.9412 13.1923 10.6284 14.0095 9.78207 15.317C8.63195 17.1039 8.6428 20.8848 10.9105 24.3823C11.6157 25.4719 12.5597 26.714 13.6122 26.7249C14.0028 26.714 14.2957 26.6051 14.6972 26.4308C15.2289 26.1911 15.8907 25.8969 16.9866 25.886C18.0607 25.8642 18.7552 26.1802 19.2868 26.4308C19.6774 26.616 19.9378 26.7358 20.3393 26.7249C21.3592 26.714 22.3466 25.3847 23.1061 24.2298C23.5075 23.6087 23.7354 23.2165 23.9849 22.6608C22.531 21.8 21.5762 20.2855 21.4569 18.5204C21.3375 16.8533 22.0102 15.2952 23.2471 14.2601C22.4876 13.5846 21.5871 13.2032 20.719 13.2032C19.9053 13.2032 19.3628 13.4102 18.7877 13.6282C18.2452 13.8352 17.681 14.0531 16.9757 14.0531C16.2271 14.0531 15.6086 13.8243 15.001 13.6172C14.4259 13.3884 13.8726 13.1923 13.2216 13.1923ZM16.4441 11.34C16.4115 11.34 16.3681 11.34 16.3356 11.34C15.9558 11.3291 15.6303 11.0458 15.5652 10.6645C15.3374 9.43325 15.7714 8.01677 16.7153 6.86181C17.5833 5.80492 19.0156 5.02043 20.285 4.93326C20.7299 4.91147 21.0879 5.20568 21.1422 5.63061C21.3267 6.90543 20.9252 8.30008 20.0246 9.46594C19.1458 10.61 17.7461 11.34 16.4441 11.34ZM19.5147 6.78557C18.9288 7.02528 18.3537 7.42841 17.974 7.89693C17.6159 8.33277 17.2795 8.94294 17.171 9.5749C17.7569 9.37878 18.3429 8.9865 18.7443 8.4635C18.9613 8.19111 19.3736 7.55917 19.5147 6.78557Z" fill="#191919"/>
<path d="M36.6646 10.998C36.3416 10.998 36.0531 10.9423 35.7991 10.831C35.5466 10.7197 35.3467 10.5652 35.1993 10.3676C35.0535 10.1685 34.9751 9.938 34.9641 9.67614H35.7027C35.7121 9.81883 35.7599 9.94271 35.8461 10.0478C35.9339 10.1513 36.0484 10.2312 36.1895 10.2877C36.3307 10.3441 36.4875 10.3723 36.6599 10.3723C36.8497 10.3723 37.0175 10.3394 37.1633 10.2736C37.3107 10.2077 37.4259 10.116 37.509 9.99837C37.5921 9.8792 37.6337 9.742 37.6337 9.58676C37.6337 9.42526 37.5921 9.28335 37.509 9.16105C37.4275 9.03717 37.3075 8.93995 37.1492 8.86939C36.9924 8.79883 36.8026 8.76355 36.58 8.76355H36.1731V8.17084H36.58C36.7587 8.17084 36.9155 8.13869 37.0504 8.0744C37.1868 8.01012 37.2934 7.92074 37.3703 7.80627C37.4471 7.69024 37.4855 7.55461 37.4855 7.39937C37.4855 7.25041 37.4518 7.12105 37.3844 7.01128C37.3185 6.89996 37.2244 6.81293 37.1021 6.75021C36.9814 6.68749 36.8387 6.65613 36.6741 6.65613C36.5173 6.65613 36.3706 6.68514 36.2342 6.74315C36.0994 6.7996 35.9896 6.88114 35.9049 6.98776C35.8203 7.09282 35.7748 7.21905 35.7685 7.36644H35.0653C35.0731 7.10615 35.1499 6.87722 35.2958 6.67965C35.4432 6.48208 35.6376 6.32763 35.8791 6.2163C36.1205 6.10497 36.3887 6.0493 36.6835 6.0493C36.9924 6.0493 37.2589 6.10967 37.4832 6.23041C37.7089 6.34958 37.883 6.50873 38.0053 6.70787C38.1292 6.90701 38.1903 7.12497 38.1888 7.36174C38.1903 7.63144 38.1151 7.86037 37.963 8.04853C37.8124 8.2367 37.6117 8.36292 37.3608 8.42721V8.46484C37.6807 8.51345 37.9285 8.64046 38.1041 8.84587C38.2813 9.05128 38.3691 9.30609 38.3675 9.61028C38.3691 9.87528 38.2954 10.1128 38.1464 10.323C37.999 10.5331 37.7975 10.6985 37.542 10.8192C37.2864 10.9384 36.9939 10.998 36.6646 10.998ZM40.3174 11.0121C40.0884 11.0121 39.8814 10.9698 39.6964 10.8851C39.5114 10.7988 39.3648 10.6742 39.2566 10.5111C39.15 10.348 39.0966 10.1481 39.0966 9.91135C39.0966 9.7075 39.1359 9.53972 39.2143 9.40801C39.2927 9.2763 39.3985 9.17202 39.5318 9.09519C39.6651 9.01836 39.814 8.96034 39.9787 8.92114C40.1433 8.88194 40.3111 8.85214 40.482 8.83176C40.6984 8.80667 40.874 8.78629 41.0089 8.77061C41.1437 8.75336 41.2417 8.72592 41.3029 8.68829C41.364 8.65065 41.3946 8.5895 41.3946 8.50483V8.48836C41.3946 8.28295 41.3366 8.1238 41.2205 8.0109C41.1061 7.898 40.9352 7.84155 40.7078 7.84155C40.471 7.84155 40.2844 7.89408 40.148 7.99914C40.0132 8.10263 39.9199 8.21788 39.8681 8.34489L39.2072 8.19436C39.2856 7.97484 39.4001 7.79765 39.5506 7.6628C39.7027 7.52638 39.8775 7.42759 40.0751 7.36644C40.2727 7.30372 40.4804 7.27236 40.6984 7.27236C40.8426 7.27236 40.9955 7.28961 41.157 7.32411C41.3201 7.35703 41.4722 7.41819 41.6133 7.50756C41.756 7.59694 41.8728 7.72474 41.9638 7.89095C42.0547 8.05559 42.1002 8.26962 42.1002 8.53305V10.9321H41.4134V10.4382H41.3852C41.3397 10.5291 41.2715 10.6185 41.1806 10.7063C41.0896 10.7941 40.9728 10.8671 40.8301 10.9251C40.6874 10.9831 40.5165 11.0121 40.3174 11.0121ZM40.4702 10.4476C40.6647 10.4476 40.8309 10.4092 40.9689 10.3324C41.1084 10.2555 41.2143 10.1552 41.2864 10.0313C41.3601 9.90586 41.3969 9.77179 41.3969 9.6291V9.1634C41.3719 9.18849 41.3232 9.21201 41.2511 9.23396C41.1806 9.25434 41.0998 9.27238 41.0089 9.28806C40.9179 9.30217 40.8293 9.3155 40.7431 9.32804C40.6568 9.33902 40.5847 9.34842 40.5267 9.35626C40.3903 9.37351 40.2656 9.40252 40.1527 9.44329C40.0414 9.48406 39.952 9.54286 39.8846 9.61969C39.8187 9.69496 39.7858 9.79531 39.7858 9.92075C39.7858 10.0948 39.8501 10.2265 39.9787 10.3159C40.1072 10.4037 40.2711 10.4476 40.4702 10.4476ZM45.3466 7.3194V7.92623H43.7307V10.9321H43.0369V7.3194H45.3466ZM46.0898 12.2869V7.3194H46.7766V7.90506H46.8354C46.8762 7.82979 46.935 7.74277 47.0118 7.64398C47.0887 7.5452 47.1953 7.45896 47.3317 7.38526C47.4681 7.30999 47.6485 7.27236 47.8727 7.27236C48.1643 7.27236 48.4246 7.34606 48.6536 7.49345C48.8825 7.64085 49.062 7.85331 49.1922 8.13085C49.3239 8.40839 49.3897 8.74238 49.3897 9.13282C49.3897 9.52326 49.3247 9.85803 49.1945 10.1371C49.0644 10.4147 48.8856 10.6287 48.6583 10.7792C48.4309 10.9282 48.1714 11.0027 47.8797 11.0027C47.6602 11.0027 47.4807 10.9658 47.3411 10.8921C47.2031 10.8184 47.0949 10.7322 47.0165 10.6334C46.9381 10.5346 46.8778 10.4468 46.8354 10.37H46.7931V12.2869H46.0898ZM46.779 9.12577C46.779 9.37979 46.8158 9.60244 46.8895 9.79374C46.9632 9.98504 47.0699 10.1348 47.2094 10.243C47.349 10.3496 47.5199 10.4029 47.7222 10.4029C47.9323 10.4029 48.1079 10.3473 48.249 10.2359C48.3901 10.123 48.4968 9.97015 48.5689 9.77728C48.6426 9.58441 48.6794 9.36724 48.6794 9.12577C48.6794 8.88743 48.6434 8.67339 48.5712 8.48366C48.5007 8.29393 48.3941 8.14418 48.2514 8.03442C48.1102 7.92466 47.9338 7.86978 47.7222 7.86978C47.5183 7.86978 47.3458 7.92231 47.2047 8.02736C47.0652 8.13242 46.9593 8.27903 46.8872 8.4672C46.8151 8.65536 46.779 8.87488 46.779 9.12577ZM50.4993 12.2869C50.3943 12.2869 50.2986 12.2783 50.2124 12.261C50.1261 12.2453 50.0618 12.2281 50.0195 12.2093L50.1889 11.633C50.3174 11.6675 50.4319 11.6824 50.5322 11.6777C50.6326 11.673 50.7212 11.6354 50.798 11.5648C50.8764 11.4943 50.9454 11.379 51.005 11.2191L51.092 10.9792L49.7702 7.3194H50.5228L51.4378 10.123H51.4754L52.3904 7.3194H53.1454L51.6565 11.4143C51.5875 11.6025 51.4997 11.7616 51.3931 11.8918C51.2865 12.0235 51.1595 12.1223 51.0121 12.1881C50.8647 12.254 50.6938 12.2869 50.4993 12.2869ZM53.5922 9.9772H54.312C54.3214 10.1246 54.388 10.2383 54.5119 10.3182C54.6373 10.3982 54.7996 10.4382 54.9988 10.4382C55.201 10.4382 55.3735 10.3951 55.5162 10.3088C55.6589 10.221 55.7302 10.0854 55.7302 9.90194C55.7302 9.79218 55.7028 9.69653 55.6479 9.61499C55.5946 9.53188 55.5186 9.46759 55.4198 9.42212C55.3226 9.37665 55.2073 9.35391 55.074 9.35391H54.486V8.80118H55.074C55.2732 8.80118 55.4221 8.75571 55.5209 8.66477C55.6197 8.57382 55.6691 8.46014 55.6691 8.32372C55.6691 8.17633 55.6158 8.05794 55.5092 7.96856C55.4041 7.87762 55.2575 7.83215 55.0693 7.83215C54.878 7.83215 54.7189 7.87527 54.5919 7.96151C54.4649 8.04618 54.3982 8.15594 54.3919 8.29079H53.6816C53.6863 8.08852 53.7475 7.91133 53.8651 7.75923C53.9843 7.60557 54.1442 7.4864 54.3449 7.40172C54.5472 7.31548 54.7769 7.27236 55.034 7.27236C55.3022 7.27236 55.5342 7.31548 55.7302 7.40172C55.9263 7.48796 56.0776 7.60713 56.1842 7.75923C56.2924 7.91133 56.3465 8.08617 56.3465 8.28374C56.3465 8.48288 56.2869 8.64595 56.1677 8.77296C56.0501 8.8984 55.8965 8.98856 55.7067 9.04344V9.08108C55.8463 9.09048 55.9702 9.13282 56.0784 9.20809C56.1865 9.28335 56.2712 9.38292 56.3324 9.5068C56.3935 9.63067 56.4241 9.77101 56.4241 9.92781C56.4241 10.1489 56.3629 10.3402 56.2406 10.5017C56.1199 10.6632 55.9521 10.7879 55.7373 10.8757C55.5241 10.9619 55.2802 11.005 55.0058 11.005C54.7393 11.005 54.5001 10.9635 54.2885 10.8804C54.0783 10.7957 53.9113 10.6765 53.7875 10.5229C53.6652 10.3692 53.6001 10.1873 53.5922 9.9772ZM57.8394 9.94663L59.4318 7.3194H60.1891V10.9321H59.5V8.30255L57.9147 10.9321H57.1503V7.3194H57.8394V9.94663ZM60.6866 7.92623V7.3194H63.7348V7.92623H62.5564V10.9321H61.8697V7.92623H60.6866ZM65.8675 11.005C65.5116 11.005 65.205 10.929 64.9479 10.7769C64.6923 10.6232 64.4947 10.4076 64.3552 10.1301C64.2172 9.85098 64.1482 9.52404 64.1482 9.14929C64.1482 8.77923 64.2172 8.45308 64.3552 8.17084C64.4947 7.88859 64.6892 7.66829 64.9385 7.50992C65.1894 7.35155 65.4826 7.27236 65.8181 7.27236C66.022 7.27236 66.2195 7.30607 66.4108 7.3735C66.6021 7.44092 66.7738 7.54676 66.9259 7.69102C67.078 7.83528 67.198 8.02266 67.2858 8.25316C67.3736 8.48209 67.4175 8.76042 67.4175 9.08813V9.33745H64.5457V8.81059H66.7284C66.7284 8.62557 66.6907 8.46171 66.6155 8.31902C66.5402 8.17476 66.4344 8.06108 66.2979 7.97797C66.1631 7.89487 66.0047 7.85331 65.8228 7.85331C65.6253 7.85331 65.4528 7.90192 65.3054 7.99914C65.1596 8.09479 65.0467 8.22023 64.9667 8.37547C64.8883 8.52913 64.8491 8.69613 64.8491 8.87645V9.28806C64.8491 9.52953 64.8914 9.73494 64.9761 9.90429C65.0623 10.0736 65.1823 10.203 65.336 10.2924C65.4896 10.3802 65.6692 10.4241 65.8746 10.4241C66.0079 10.4241 66.1294 10.4053 66.2391 10.3676C66.3489 10.3284 66.4438 10.2704 66.5237 10.1936C66.6037 10.1168 66.6649 10.0219 66.7072 9.90899L67.3728 10.0289C67.3195 10.225 67.2239 10.3966 67.0859 10.544C66.9495 10.6899 66.7778 10.8036 66.5708 10.8851C66.3654 10.9651 66.131 11.005 65.8675 11.005ZM69.9507 10.9321V7.3194H71.4489C71.8566 7.3194 72.1796 7.40643 72.4179 7.58048C72.6563 7.75296 72.7755 7.98738 72.7755 8.28374C72.7755 8.49542 72.708 8.6632 72.5732 8.78707C72.4383 8.91095 72.2596 8.99405 72.0369 9.03639C72.1984 9.0552 72.3466 9.10381 72.4814 9.18221C72.6163 9.25905 72.7245 9.36254 72.806 9.49268C72.8891 9.62283 72.9307 9.77806 72.9307 9.95839C72.9307 10.1497 72.8813 10.319 72.7825 10.4664C72.6837 10.6123 72.5402 10.7267 72.3521 10.8098C72.1655 10.8914 71.9405 10.9321 71.6771 10.9321H69.9507ZM70.6116 10.3441H71.6771C71.8511 10.3441 71.9875 10.3026 72.0863 10.2195C72.1851 10.1364 72.2345 10.0235 72.2345 9.88077C72.2345 9.71299 72.1851 9.58128 72.0863 9.48563C71.9875 9.38841 71.8511 9.3398 71.6771 9.3398H70.6116V10.3441ZM70.6116 8.8247H71.456C71.5877 8.8247 71.7006 8.80589 71.7947 8.76826C71.8903 8.73062 71.9632 8.67731 72.0134 8.60832C72.0651 8.53776 72.091 8.45465 72.091 8.359C72.091 8.21945 72.0338 8.11047 71.9193 8.03207C71.8048 7.95367 71.648 7.91447 71.4489 7.91447H70.6116V8.8247Z" fill="#191919"/>
<path d="M36.6785 25.3296H34.8439L38.1841 15.8418H40.3059L43.6507 25.3296H41.8162L39.2821 17.7876H39.208L36.6785 25.3296ZM36.7387 21.6095H41.742V22.9901H36.7387V21.6095ZM44.761 27.998V18.2138H46.4103V19.3905H46.5076C46.594 19.2175 46.716 19.0338 46.8735 18.8392C47.0311 18.6415 47.2442 18.4732 47.5129 18.3342C47.7816 18.1921 48.1244 18.1211 48.5413 18.1211C49.0911 18.1211 49.5868 18.2616 50.0284 18.5427C50.4732 18.8206 50.8252 19.233 51.0847 19.7796C51.3472 20.3232 51.4784 20.9903 51.4784 21.7809C51.4784 22.5623 51.3503 23.2263 51.0939 23.773C50.8376 24.3197 50.4886 24.7366 50.0469 25.0238C49.6053 25.3111 49.105 25.4547 48.5459 25.4547C48.1383 25.4547 47.8001 25.3867 47.5314 25.2508C47.2627 25.1149 47.0465 24.9513 46.8828 24.7598C46.7222 24.5652 46.5971 24.3814 46.5076 24.2085H46.4381V27.998H44.761ZM46.4056 21.7717C46.4056 22.2319 46.4705 22.6349 46.6002 22.9808C46.733 23.3267 46.923 23.597 47.17 23.7915C47.4202 23.983 47.7229 24.0788 48.078 24.0788C48.4487 24.0788 48.7591 23.9799 49.0092 23.7823C49.2594 23.5815 49.4478 23.3082 49.5744 22.9623C49.7041 22.6133 49.769 22.2164 49.769 21.7717C49.769 21.33 49.7057 20.9378 49.579 20.595C49.4524 20.2522 49.264 19.9835 49.0138 19.7889C48.7637 19.5943 48.4517 19.497 48.078 19.497C47.7198 19.497 47.4156 19.5912 47.1654 19.7796C46.9152 19.968 46.7253 20.2321 46.5956 20.5718C46.469 20.9115 46.4056 21.3115 46.4056 21.7717ZM52.8494 27.998V18.2138H54.4986V19.3905H54.5959C54.6824 19.2175 54.8044 19.0338 54.9619 18.8392C55.1194 18.6415 55.3325 18.4732 55.6012 18.3342C55.8699 18.1921 56.2127 18.1211 56.6296 18.1211C57.1794 18.1211 57.6751 18.2616 58.1167 18.5427C58.5615 18.8206 58.9136 19.233 59.173 19.7796C59.4355 20.3232 59.5668 20.9903 59.5668 21.7809C59.5668 22.5623 59.4386 23.2263 59.1823 23.773C58.9259 24.3197 58.5769 24.7366 58.1353 25.0238C57.6936 25.3111 57.1933 25.4547 56.6343 25.4547C56.2266 25.4547 55.8884 25.3867 55.6197 25.2508C55.351 25.1149 55.1348 24.9513 54.9711 24.7598C54.8105 24.5652 54.6854 24.3814 54.5959 24.2085H54.5264V27.998H52.8494ZM54.494 21.7717C54.494 22.2319 54.5588 22.6349 54.6885 22.9808C54.8213 23.3267 55.0113 23.597 55.2584 23.7915C55.5085 23.983 55.8112 24.0788 56.1664 24.0788C56.537 24.0788 56.8474 23.9799 57.0975 23.7823C57.3477 23.5815 57.5361 23.3082 57.6627 22.9623C57.7924 22.6133 57.8573 22.2164 57.8573 21.7717C57.8573 21.33 57.794 20.9378 57.6674 20.595C57.5407 20.2522 57.3523 19.9835 57.1022 19.7889C56.852 19.5943 56.5401 19.497 56.1664 19.497C55.8081 19.497 55.5039 19.5912 55.2537 19.7796C55.0036 19.968 54.8136 20.2321 54.6839 20.5718C54.5573 20.9115 54.494 21.3115 54.494 21.7717ZM69.3387 18.45C69.2955 18.0454 69.1133 17.7304 68.7921 17.505C68.4739 17.2795 68.0601 17.1668 67.5505 17.1668C67.1922 17.1668 66.8849 17.2208 66.6286 17.3289C66.3722 17.437 66.1761 17.5837 66.0402 17.769C65.9043 17.9543 65.8348 18.1659 65.8318 18.4037C65.8318 18.6014 65.8765 18.7728 65.9661 18.9179C66.0588 19.0631 66.1838 19.1866 66.3414 19.2885C66.4989 19.3874 66.6734 19.4708 66.8648 19.5387C67.0563 19.6067 67.2494 19.6638 67.4439 19.7101L68.3334 19.9325C68.6917 20.0159 69.036 20.1286 69.3665 20.2707C69.7001 20.4128 69.9981 20.5919 70.2606 20.8081C70.5262 21.0243 70.7362 21.2852 70.8907 21.591C71.0451 21.8968 71.1223 22.255 71.1223 22.6658C71.1223 23.2217 70.9802 23.7112 70.6961 24.1344C70.412 24.5544 70.0012 24.8833 69.4638 25.1211C68.9295 25.3558 68.2825 25.4732 67.5227 25.4732C66.7845 25.4732 66.1437 25.3589 65.6001 25.1304C65.0596 24.9018 64.6365 24.5683 64.3308 24.1297C64.0281 23.6912 63.8644 23.1569 63.8397 22.5268H65.5306C65.5553 22.8573 65.6573 23.1321 65.8364 23.3514C66.0155 23.5707 66.2487 23.7344 66.5359 23.8425C66.8262 23.9506 67.1505 24.0046 67.5088 24.0046C67.8825 24.0046 68.2099 23.949 68.4909 23.8379C68.7751 23.7236 68.9974 23.5661 69.158 23.3653C69.3186 23.1615 69.4005 22.9237 69.4036 22.6519C69.4005 22.4048 69.3279 22.201 69.1858 22.0404C69.0438 21.8767 68.8446 21.7408 68.5882 21.6327C68.335 21.5215 68.0385 21.4227 67.6987 21.3362L66.6193 21.0582C65.8379 20.8575 65.2202 20.5533 64.7662 20.1456C64.3153 19.7348 64.0899 19.1897 64.0899 18.5103C64.0899 17.9512 64.2412 17.4617 64.5439 17.0417C64.8496 16.6217 65.265 16.2958 65.7901 16.0642C66.3151 15.8295 66.9096 15.7121 67.5737 15.7121C68.2469 15.7121 68.8368 15.8295 69.3433 16.0642C69.8529 16.2958 70.2529 16.6186 70.5432 17.0324C70.8335 17.4432 70.9833 17.9157 70.9926 18.45H69.3387ZM76.0685 18.2138V19.5109H71.9778V18.2138H76.0685ZM72.9877 16.5089H74.6648V23.1893C74.6648 23.4147 74.6988 23.5877 74.7667 23.7081C74.8377 23.8255 74.9304 23.9058 75.0447 23.949C75.1589 23.9923 75.2856 24.0139 75.4245 24.0139C75.5296 24.0139 75.6253 24.0062 75.7118 23.9907C75.8013 23.9753 75.8693 23.9614 75.9156 23.949L76.1982 25.2601C76.1086 25.291 75.9805 25.325 75.8137 25.362C75.65 25.3991 75.4493 25.4207 75.2114 25.4269C74.7914 25.4392 74.4131 25.3759 74.0764 25.2369C73.7398 25.0949 73.4726 24.8756 73.275 24.5791C73.0804 24.2826 72.9847 23.912 72.9877 23.4672V16.5089ZM80.4333 25.4686C79.7384 25.4686 79.1361 25.3157 78.6265 25.0099C78.1169 24.7042 77.7216 24.2764 77.4406 23.7267C77.1626 23.1769 77.0236 22.5345 77.0236 21.7995C77.0236 21.0644 77.1626 20.4205 77.4406 19.8676C77.7216 19.3148 78.1169 18.8855 78.6265 18.5797C79.1361 18.274 79.7384 18.1211 80.4333 18.1211C81.1282 18.1211 81.7304 18.274 82.24 18.5797C82.7496 18.8855 83.1434 19.3148 83.4214 19.8676C83.7024 20.4205 83.843 21.0644 83.843 21.7995C83.843 22.5345 83.7024 23.1769 83.4214 23.7267C83.1434 24.2764 82.7496 24.7042 82.24 25.0099C81.7304 25.3157 81.1282 25.4686 80.4333 25.4686ZM80.4426 24.1251C80.8193 24.1251 81.1344 24.0216 81.3876 23.8147C81.6409 23.6047 81.8293 23.3236 81.9528 22.9715C82.0794 22.6195 82.1428 22.2272 82.1428 21.7948C82.1428 21.3594 82.0794 20.9656 81.9528 20.6135C81.8293 20.2583 81.6409 19.9757 81.3876 19.7657C81.1344 19.5557 80.8193 19.4507 80.4426 19.4507C80.0565 19.4507 79.7353 19.5557 79.4789 19.7657C79.2257 19.9757 79.0358 20.2583 78.9091 20.6135C78.7856 20.9656 78.7238 21.3594 78.7238 21.7948C78.7238 22.2272 78.7856 22.6195 78.9091 22.9715C79.0358 23.3236 79.2257 23.6047 79.4789 23.8147C79.7353 24.0216 80.0565 24.1251 80.4426 24.1251ZM85.2011 25.3296V18.2138H86.8272V19.3997H86.9013C87.031 18.989 87.2534 18.6724 87.5684 18.45C87.8865 18.2246 88.2494 18.1118 88.6571 18.1118C88.7498 18.1118 88.8532 18.1165 88.9675 18.1257C89.0849 18.1319 89.1822 18.1427 89.2594 18.1582V19.7009C89.1883 19.6762 89.0756 19.6545 88.9212 19.636C88.7698 19.6144 88.6231 19.6036 88.4811 19.6036C88.1753 19.6036 87.9004 19.67 87.6565 19.8028C87.4156 19.9325 87.2256 20.1132 87.0866 20.3448C86.9476 20.5764 86.8782 20.8436 86.8782 21.1463V25.3296H85.2011ZM93.1655 25.4686C92.4521 25.4686 91.8359 25.3203 91.3171 25.0238C90.8013 24.7243 90.4044 24.3011 90.1265 23.7545C89.8485 23.2047 89.7095 22.5577 89.7095 21.8134C89.7095 21.0814 89.8485 20.439 90.1265 19.8862C90.4075 19.3302 90.7998 18.8979 91.3032 18.589C91.8066 18.2771 92.398 18.1211 93.0775 18.1211C93.5161 18.1211 93.9299 18.1921 94.3191 18.3342C94.7113 18.4732 95.0572 18.6894 95.3568 18.9828C95.6595 19.2762 95.8973 19.6499 96.0702 20.1039C96.2432 20.5548 96.3297 21.0922 96.3297 21.7161V22.2303H90.4971V21.0999H94.7221C94.719 20.7787 94.6495 20.4931 94.5136 20.2429C94.3777 19.9896 94.1878 19.7904 93.9438 19.6453C93.7029 19.5001 93.4219 19.4275 93.1007 19.4275C92.7578 19.4275 92.4567 19.5109 92.1973 19.6777C91.9379 19.8414 91.7356 20.0576 91.5904 20.3263C91.4483 20.5919 91.3758 20.8837 91.3727 21.2019V22.1886C91.3727 22.6025 91.4483 22.9576 91.5997 23.2541C91.751 23.5475 91.9626 23.773 92.2343 23.9305C92.5061 24.0849 92.8242 24.1621 93.1887 24.1621C93.4327 24.1621 93.6535 24.1282 93.8512 24.0602C94.0488 23.9892 94.2202 23.8857 94.3654 23.7498C94.5105 23.6139 94.6202 23.4456 94.6943 23.2449L96.2602 23.4209C96.1613 23.8348 95.9729 24.1961 95.695 24.505C95.4201 24.8107 95.068 25.0485 94.6387 25.2184C94.2094 25.3852 93.7184 25.4686 93.1655 25.4686Z" fill="#191919"/>
</svg>
