<svg width="32" height="19" viewBox="0 0 32 19" fill="none" xmlns="http://www.w3.org/2000/svg">
    <path
        d="M30.7692 3H1.23077C0.557949 3 0 2.32 0 1.5C0 0.68 0.557949 0 1.23077 0H30.7692C31.4421 0 32 0.68 32 1.5C32 2.32 31.4421 3 30.7692 3Z"
        fill="#191919" />
    <path
        d="M30.9615 11H6.03846C5.47077 11 5 10.32 5 9.5C5 8.68 5.47077 8 6.03846 8H30.9615C31.5292 8 32 8.68 32 9.5C32 10.32 31.5292 11 30.9615 11Z"
        fill="#191919" />
    <path
        d="M31.1538 19H10.8462C10.3836 19 10 18.32 10 17.5C10 16.68 10.3836 16 10.8462 16H31.1538C31.6164 16 32 16.68 32 17.5C32 18.32 31.6164 19 31.1538 19Z"
        fill="#191919" />
</svg>