<svg width="145" height="34" viewBox="0 0 145 34" fill="none" xmlns="http://www.w3.org/2000/svg">
<rect width="145" height="34" rx="4.45736" fill="#F3F3F3"/>
<path d="M22.5951 20.7624C22.4103 20.7624 22.2158 20.6846 22.0797 20.5485L18.9771 17.4465C18.695 17.1646 18.695 16.6978 18.9771 16.4158L22.1088 13.2847C22.3325 13.0611 22.6729 13.0125 22.955 13.1486L27.3219 15.3365C27.925 15.6282 28.3043 16.2311 28.3043 16.9117C28.3043 17.5924 27.925 18.1953 27.3219 18.487L22.9355 20.6846C22.8188 20.7332 22.7021 20.7624 22.5951 20.7624ZM20.5235 16.9312L22.7313 19.1385L26.6509 17.1743C26.6509 17.1743 26.6509 17.1743 26.6606 17.1743C26.8065 17.1062 26.8259 16.9798 26.8259 16.9117C26.8259 16.8437 26.8065 16.7173 26.6606 16.6492L22.7605 14.6947L20.5235 16.9312Z" fill="#191919"/>
<path d="M9.15385 27.3649C8.8329 27.3649 8.50221 27.2774 8.22016 27.0926C7.69496 26.7717 7.38373 26.2078 7.38373 25.5854V8.21862C7.38373 7.60602 7.69496 7.04204 8.22016 6.71143C8.74536 6.39055 9.38728 6.35163 9.94166 6.63363L22.9453 13.1389C23.1592 13.2458 23.3051 13.4403 23.3343 13.6737C23.3635 13.9071 23.2954 14.1405 23.1301 14.3058L10.6808 26.7523C10.6225 26.8106 10.5641 26.8495 10.4863 26.8884L9.9222 27.1704C9.68878 27.3065 9.41645 27.3649 9.15385 27.3649ZM9.15385 7.91718C9.08577 7.91718 9.02742 7.94634 8.98851 7.96579C8.93016 7.99496 8.84262 8.08249 8.84262 8.22835V25.5951C8.84262 25.7507 8.93016 25.8285 8.98851 25.8577C9.04687 25.8966 9.15385 25.9355 9.29974 25.8674L9.74714 25.6438L21.3891 14.0043L9.29002 7.95608C9.24139 7.92691 9.19276 7.91718 9.15385 7.91718Z" fill="#191919"/>
<path d="M10.1751 26.9759C9.95138 26.9759 9.72768 26.869 9.5818 26.6745C9.36782 26.3828 9.40673 25.9841 9.6596 25.7313L18.9771 16.4158C19.1132 16.2797 19.298 16.2019 19.4925 16.2019C19.6871 16.2019 19.8719 16.2797 20.008 16.4158L23.1106 19.5177C23.2759 19.683 23.3538 19.9164 23.3149 20.1498C23.2759 20.3831 23.1301 20.5776 22.9258 20.6846L10.5155 26.8981C10.3988 26.9467 10.2918 26.9759 10.1751 26.9759ZM19.4925 17.9619L13.8807 23.5726L21.3599 19.8289L19.4925 17.9619Z" fill="#191919"/>
<path d="M19.4925 17.6605C19.3078 17.6605 19.123 17.5924 18.9771 17.4465L9.63043 8.10194C9.34837 7.81995 9.34837 7.35321 9.63043 7.07122C9.91248 6.78923 10.3793 6.78923 10.6614 7.07122L20.008 16.4158C20.2901 16.6978 20.2901 17.1646 20.008 17.4465C19.8719 17.5924 19.6773 17.6605 19.4925 17.6605Z" fill="#191919"/>
<path d="M22.6049 20.7818C22.4298 20.7818 22.245 20.7138 22.1088 20.5679L22.0797 20.5388C21.7976 20.2568 21.7976 19.79 22.0894 19.508C22.3812 19.226 22.8383 19.226 23.1203 19.5177C23.4024 19.7997 23.4121 20.2859 23.1301 20.5679C22.9744 20.7138 22.7896 20.7818 22.6049 20.7818Z" fill="#191919"/>
<path d="M36.5935 11.2791C36.2712 11.2791 35.9832 11.2236 35.7297 11.1124C35.4777 11.0013 35.2782 10.8472 35.1311 10.65C34.9855 10.4512 34.9073 10.2212 34.8963 9.95983H35.6334C35.6428 10.1022 35.6905 10.2259 35.7766 10.3307C35.8643 10.434 35.9785 10.5138 36.1194 10.5702C36.2602 10.6265 36.4167 10.6547 36.5888 10.6547C36.7782 10.6547 36.9457 10.6218 37.0912 10.5561C37.2383 10.4904 37.3533 10.3988 37.4363 10.2814C37.5192 10.1625 37.5607 10.0256 37.5607 9.87062C37.5607 9.70943 37.5192 9.5678 37.4363 9.44573C37.3549 9.32209 37.2352 9.22507 37.0771 9.15464C36.9206 9.08422 36.7313 9.049 36.509 9.049H36.1029V8.45744H36.509C36.6874 8.45744 36.8439 8.42536 36.9785 8.36119C37.1147 8.29703 37.2211 8.20783 37.2978 8.09358C37.3745 7.97777 37.4128 7.8424 37.4128 7.68747C37.4128 7.53879 37.3792 7.40968 37.3119 7.30013C37.2461 7.18902 37.1522 7.10216 37.0302 7.03956C36.9097 6.97696 36.7673 6.94566 36.6029 6.94566C36.4464 6.94566 36.3001 6.97462 36.164 7.03252C36.0294 7.08886 35.9198 7.17024 35.8353 7.27666C35.7508 7.38151 35.7054 7.50749 35.6992 7.6546H34.9973C35.0051 7.39482 35.0818 7.16633 35.2273 6.96914C35.3744 6.77195 35.5685 6.6178 35.8095 6.50669C36.0505 6.39557 36.3181 6.34002 36.6123 6.34002C36.9206 6.34002 37.1867 6.40027 37.4105 6.52077C37.6358 6.63971 37.8095 6.79856 37.9316 6.99731C38.0552 7.19606 38.1163 7.4136 38.1147 7.64991C38.1163 7.91909 38.0412 8.14757 37.8893 8.33537C37.7391 8.52317 37.5388 8.64915 37.2884 8.71332V8.75087C37.6077 8.79939 37.8549 8.92615 38.0302 9.13117C38.207 9.33618 38.2947 9.59049 38.2931 9.8941C38.2947 10.1586 38.2211 10.3957 38.0725 10.6054C37.9253 10.8151 37.7242 10.9802 37.4692 11.1007C37.2141 11.2196 36.9222 11.2791 36.5935 11.2791ZM40.2392 11.2932C40.0107 11.2932 39.8041 11.2509 39.6194 11.1664C39.4348 11.0804 39.2884 10.9559 39.1805 10.7932C39.074 10.6304 39.0208 10.4309 39.0208 10.1946C39.0208 9.99113 39.06 9.82367 39.1382 9.69221C39.2165 9.56075 39.3221 9.45668 39.4551 9.38C39.5881 9.30331 39.7368 9.24541 39.9011 9.20629C40.0655 9.16716 40.2329 9.13743 40.4035 9.11708C40.6195 9.09204 40.7947 9.0717 40.9293 9.05605C41.0639 9.03883 41.1617 9.01145 41.2228 8.97389C41.2838 8.93633 41.3143 8.87529 41.3143 8.79078V8.77435C41.3143 8.56934 41.2564 8.41049 41.1406 8.29781C41.0264 8.18513 40.8558 8.12879 40.6289 8.12879C40.3925 8.12879 40.2063 8.18122 40.0702 8.28607C39.9356 8.38936 39.8424 8.50439 39.7908 8.63115L39.1312 8.48092C39.2094 8.26182 39.3237 8.08497 39.4739 7.95039C39.6257 7.81423 39.8002 7.71564 39.9974 7.6546C40.1946 7.592 40.4019 7.5607 40.6195 7.5607C40.7634 7.5607 40.916 7.57792 41.0772 7.61235C41.24 7.64521 41.3918 7.70625 41.5326 7.79545C41.675 7.88466 41.7916 8.0122 41.8824 8.17809C41.9732 8.34241 42.0186 8.55603 42.0186 8.81895V11.2134H41.3331V10.7204H41.3049C41.2595 10.8112 41.1915 10.9004 41.1007 10.988C41.0099 11.0757 40.8933 11.1484 40.7509 11.2063C40.6085 11.2642 40.4379 11.2932 40.2392 11.2932ZM40.3918 10.7298C40.5858 10.7298 40.7517 10.6915 40.8894 10.6148C41.0287 10.5381 41.1343 10.4379 41.2063 10.3143C41.2799 10.1891 41.3167 10.0553 41.3167 9.91288V9.44808C41.2916 9.47312 41.2431 9.49659 41.1711 9.5185C41.1007 9.53884 41.0201 9.55684 40.9293 9.57249C40.8386 9.58658 40.7501 9.59988 40.6641 9.6124C40.578 9.62335 40.506 9.63274 40.4481 9.64057C40.3119 9.65778 40.1875 9.68674 40.0749 9.72743C39.9637 9.76812 39.8745 9.8268 39.8072 9.90349C39.7415 9.97861 39.7086 10.0788 39.7086 10.204C39.7086 10.3777 39.7728 10.5091 39.9011 10.5983C40.0295 10.686 40.193 10.7298 40.3918 10.7298ZM45.2587 7.60765V8.2133H43.646V11.2134H42.9534V7.60765H45.2587ZM46.0005 12.5655V7.60765H46.6859V8.19218H46.7446C46.7853 8.11706 46.844 8.0302 46.9207 7.93161C46.9974 7.83301 47.1038 7.74694 47.2399 7.67338C47.3761 7.59826 47.5561 7.5607 47.7799 7.5607C48.0709 7.5607 48.3307 7.63426 48.5592 7.78137C48.7877 7.92848 48.9669 8.14053 49.0968 8.41753C49.2283 8.69454 49.294 9.02788 49.294 9.41756C49.294 9.80724 49.229 10.1414 49.0991 10.4199C48.9692 10.6969 48.7908 10.9106 48.5639 11.0608C48.337 11.2095 48.078 11.2838 47.7869 11.2838C47.5678 11.2838 47.3886 11.247 47.2493 11.1735C47.1116 11.0999 47.0036 11.0138 46.9254 10.9152C46.8471 10.8167 46.7869 10.729 46.7446 10.6523H46.7024V12.5655H46.0005ZM46.6883 9.41052C46.6883 9.66404 46.7251 9.88627 46.7986 10.0772C46.8722 10.2681 46.9786 10.4176 47.1179 10.5256C47.2572 10.632 47.4277 10.6852 47.6296 10.6852C47.8393 10.6852 48.0146 10.6296 48.1555 10.5185C48.2963 10.4058 48.4027 10.2533 48.4747 10.0608C48.5483 9.86827 48.585 9.65152 48.585 9.41052C48.585 9.17264 48.549 8.95902 48.4771 8.76965C48.4066 8.58029 48.3002 8.43084 48.1578 8.32129C48.017 8.21174 47.8409 8.15696 47.6296 8.15696C47.4262 8.15696 47.254 8.20939 47.1132 8.31424C46.9739 8.4191 46.8683 8.56542 46.7963 8.75322C46.7243 8.94102 46.6883 9.16012 46.6883 9.41052ZM50.4014 12.5655C50.2965 12.5655 50.2011 12.5569 50.115 12.5397C50.0289 12.5241 49.9648 12.5068 49.9225 12.4881L50.0915 11.9129C50.2199 11.9474 50.3341 11.9622 50.4343 11.9575C50.5344 11.9528 50.6228 11.9153 50.6995 11.8449C50.7778 11.7744 50.8466 11.6594 50.9061 11.4998L50.993 11.2603L49.6737 7.60765H50.4249L51.338 10.4058H51.3756L52.2888 7.60765H53.0423L51.5564 11.6946C51.4875 11.8824 51.3999 12.0413 51.2934 12.1711C51.187 12.3026 51.0603 12.4012 50.9132 12.4669C50.766 12.5327 50.5955 12.5655 50.4014 12.5655ZM53.4883 10.2603H54.2067C54.2161 10.4074 54.2826 10.5209 54.4062 10.6007C54.5314 10.6805 54.6934 10.7204 54.8921 10.7204C55.094 10.7204 55.2662 10.6774 55.4086 10.5913C55.551 10.5037 55.6222 10.3683 55.6222 10.1852C55.6222 10.0756 55.5948 9.98017 55.54 9.89879C55.4868 9.81585 55.4109 9.75168 55.3123 9.7063C55.2153 9.66091 55.1003 9.63822 54.9672 9.63822H54.3804V9.08656H54.9672C55.166 9.08656 55.3147 9.04118 55.4133 8.95041C55.5119 8.85964 55.5612 8.74618 55.5612 8.61003C55.5612 8.46292 55.5079 8.34476 55.4015 8.25556C55.2967 8.16479 55.1504 8.1194 54.9626 8.1194C54.7716 8.1194 54.6128 8.16244 54.486 8.24851C54.3593 8.33302 54.2927 8.44257 54.2865 8.57716H53.5775C53.5822 8.37528 53.6433 8.19844 53.7606 8.04663C53.8796 7.89326 54.0392 7.77432 54.2395 7.68982C54.4414 7.60374 54.6707 7.5607 54.9273 7.5607C55.195 7.5607 55.4266 7.60374 55.6222 7.68982C55.8178 7.77589 55.9688 7.89483 56.0753 8.04663C56.1832 8.19844 56.2372 8.37293 56.2372 8.57012C56.2372 8.76887 56.1778 8.93163 56.0588 9.05839C55.9415 9.18359 55.7881 9.27358 55.5987 9.32835V9.36591C55.738 9.3753 55.8616 9.41756 55.9696 9.49268C56.0776 9.5678 56.1621 9.66717 56.2231 9.79081C56.2842 9.91444 56.3147 10.0545 56.3147 10.211C56.3147 10.4317 56.2537 10.6226 56.1316 10.7838C56.0111 10.945 55.8436 11.0694 55.6292 11.157C55.4164 11.2431 55.173 11.2862 54.8992 11.2862C54.6331 11.2862 54.3945 11.2447 54.1832 11.1617C53.9735 11.0772 53.8068 10.9583 53.6832 10.8049C53.5611 10.6515 53.4962 10.47 53.4883 10.2603ZM57.7273 10.2298L59.3165 7.60765H60.0724V11.2134H59.3846V8.5889L57.8024 11.2134H57.0395V7.60765H57.7273V10.2298ZM60.5689 8.2133V7.60765H63.6112V8.2133H62.4352V11.2134H61.7497V8.2133H60.5689ZM65.7398 11.2862C65.3846 11.2862 65.0786 11.2102 64.822 11.0584C64.5669 10.9051 64.3697 10.6899 64.2304 10.4129C64.0927 10.1343 64.0238 9.80802 64.0238 9.43399C64.0238 9.06465 64.0927 8.73914 64.2304 8.45744C64.3697 8.17574 64.5637 7.95586 64.8126 7.7978C65.063 7.63974 65.3556 7.5607 65.6905 7.5607C65.894 7.5607 66.0912 7.59435 66.2821 7.66165C66.473 7.72894 66.6444 7.83458 66.7962 7.97855C66.948 8.12253 67.0677 8.30955 67.1553 8.5396C67.243 8.76809 67.2868 9.04587 67.2868 9.37296V9.62179H64.4205V9.09595H66.599C66.599 8.91129 66.5614 8.74775 66.4863 8.60533C66.4112 8.46135 66.3056 8.34789 66.1694 8.26495C66.0348 8.182 65.8768 8.14053 65.6952 8.14053C65.498 8.14053 65.3259 8.18905 65.1788 8.28607C65.0332 8.38154 64.9206 8.50674 64.8407 8.66167C64.7625 8.81504 64.7234 8.98171 64.7234 9.16168V9.57249C64.7234 9.8135 64.7656 10.0185 64.8501 10.1875C64.9362 10.3565 65.0559 10.4857 65.2093 10.5749C65.3627 10.6625 65.5418 10.7063 65.7469 10.7063C65.8799 10.7063 66.0012 10.6875 66.1107 10.65C66.2203 10.6109 66.315 10.553 66.3948 10.4763C66.4746 10.3996 66.5356 10.3049 66.5779 10.1922L67.2422 10.3119C67.189 10.5076 67.0935 10.6789 66.9558 10.826C66.8197 10.9716 66.6483 11.0851 66.4417 11.1664C66.2367 11.2462 66.0027 11.2862 65.7398 11.2862ZM69.815 11.2134V7.60765H71.3104C71.7173 7.60765 72.0397 7.69451 72.2775 7.86822C72.5154 8.04037 72.6344 8.27434 72.6344 8.57012C72.6344 8.78139 72.5671 8.94885 72.4325 9.07248C72.2979 9.19611 72.1195 9.27906 71.8973 9.32131C72.0584 9.34009 72.2063 9.38861 72.3409 9.46686C72.4755 9.54354 72.5835 9.64683 72.6649 9.77672C72.7478 9.90662 72.7893 10.0615 72.7893 10.2415C72.7893 10.4325 72.74 10.6015 72.6414 10.7486C72.5428 10.8941 72.3996 11.0084 72.2118 11.0913C72.0256 11.1727 71.801 11.2134 71.5381 11.2134H69.815ZM70.4747 10.6265H71.5381C71.7118 10.6265 71.848 10.585 71.9466 10.5021C72.0451 10.4191 72.0944 10.3065 72.0944 10.1641C72.0944 9.9966 72.0451 9.86514 71.9466 9.76968C71.848 9.67265 71.7118 9.62414 71.5381 9.62414H70.4747V10.6265ZM70.4747 9.11004H71.3174C71.4489 9.11004 71.5616 9.09126 71.6555 9.0537C71.7509 9.01614 71.8237 8.96293 71.8738 8.89407C71.9254 8.82365 71.9512 8.7407 71.9512 8.64524C71.9512 8.50595 71.8941 8.39719 71.7799 8.31894C71.6656 8.24069 71.5091 8.20157 71.3104 8.20157H70.4747V9.11004Z" fill="#191919"/>
<path d="M39.9389 25.8055C39.0535 25.8055 38.2376 25.5928 37.4911 25.1675C36.7446 24.7422 36.15 24.1606 35.7073 23.4228C35.2733 22.6763 35.0563 21.8473 35.0563 20.9359C35.0563 20.0244 35.2733 19.1998 35.7073 18.462C36.15 17.7155 36.7446 17.1296 37.4911 16.7042C38.2376 16.2789 39.0535 16.0662 39.9389 16.0662C40.642 16.0662 41.2974 16.1921 41.905 16.4438C42.5126 16.6956 43.0204 17.0471 43.4284 17.4985L42.4128 18.5141C42.109 18.1755 41.7444 17.9151 41.3191 17.7328C40.9024 17.5506 40.438 17.4594 39.9259 17.4594C39.327 17.4594 38.7671 17.6026 38.2463 17.8891C37.7255 18.1755 37.3088 18.5835 36.9963 19.113C36.6838 19.6425 36.5276 20.2501 36.5276 20.9359C36.5276 21.6216 36.6838 22.2292 36.9963 22.7587C37.3088 23.2882 37.7255 23.6962 38.2463 23.9826C38.7671 24.2691 39.3313 24.4123 39.9389 24.4123C40.4945 24.4123 40.9589 24.3298 41.3321 24.1649C41.7054 24 42.0396 23.7787 42.3347 23.5009C42.5256 23.3099 42.6862 23.0712 42.8164 22.7848C42.9553 22.4983 43.0465 22.1858 43.0899 21.8473H39.9259V20.5453H44.47C44.5134 20.7883 44.5351 21.04 44.5351 21.3004C44.5351 21.8907 44.444 22.4593 44.2617 23.0061C44.0794 23.5443 43.7886 24.013 43.3893 24.4123C42.5126 25.3411 41.3625 25.8055 39.9389 25.8055ZM48.9674 25.8055C48.299 25.8055 47.7 25.6536 47.1705 25.3498C46.641 25.0373 46.2287 24.612 45.9336 24.0738C45.6385 23.5356 45.4909 22.9367 45.4909 22.277C45.4909 21.6173 45.6385 21.0183 45.9336 20.4802C46.2287 19.942 46.641 19.521 47.1705 19.2172C47.7 18.9047 48.299 18.7484 48.9674 18.7484C49.6357 18.7484 50.2347 18.9047 50.7642 19.2172C51.2937 19.5297 51.706 19.955 52.0011 20.4932C52.2962 21.0313 52.4438 21.6259 52.4438 22.277C52.4438 22.9367 52.2962 23.5356 52.0011 24.0738C51.706 24.612 51.2937 25.0373 50.7642 25.3498C50.2347 25.6536 49.6357 25.8055 48.9674 25.8055ZM48.9674 24.4904C49.3319 24.4904 49.6705 24.4036 49.9829 24.23C50.2954 24.0477 50.5428 23.7917 50.7251 23.4618C50.9161 23.1233 51.0116 22.7283 51.0116 22.277C51.0116 21.8256 50.9161 21.435 50.7251 21.1051C50.5428 20.7753 50.2954 20.5236 49.9829 20.3499C49.6705 20.1677 49.3319 20.0765 48.9674 20.0765C48.6028 20.0765 48.2643 20.1677 47.9518 20.3499C47.6393 20.5236 47.3875 20.7753 47.1966 21.1051C47.0143 21.435 46.9232 21.8256 46.9232 22.277C46.9232 22.7283 47.0143 23.1233 47.1966 23.4618C47.3875 23.7917 47.6393 24.0477 47.9518 24.23C48.2643 24.4036 48.6028 24.4904 48.9674 24.4904ZM56.8111 25.8055C56.1427 25.8055 55.5438 25.6536 55.0143 25.3498C54.4848 25.0373 54.0725 24.612 53.7774 24.0738C53.4822 23.5356 53.3347 22.9367 53.3347 22.277C53.3347 21.6173 53.4822 21.0183 53.7774 20.4802C54.0725 19.942 54.4848 19.521 55.0143 19.2172C55.5438 18.9047 56.1427 18.7484 56.8111 18.7484C57.4795 18.7484 58.0784 18.9047 58.6079 19.2172C59.1374 19.5297 59.5498 19.955 59.8449 20.4932C60.14 21.0313 60.2876 21.6259 60.2876 22.277C60.2876 22.9367 60.14 23.5356 59.8449 24.0738C59.5498 24.612 59.1374 25.0373 58.6079 25.3498C58.0784 25.6536 57.4795 25.8055 56.8111 25.8055ZM56.8111 24.4904C57.1757 24.4904 57.5142 24.4036 57.8267 24.23C58.1392 24.0477 58.3866 23.7917 58.5689 23.4618C58.7598 23.1233 58.8553 22.7283 58.8553 22.277C58.8553 21.8256 58.7598 21.435 58.5689 21.1051C58.3866 20.7753 58.1392 20.5236 57.8267 20.3499C57.5142 20.1677 57.1757 20.0765 56.8111 20.0765C56.4466 20.0765 56.108 20.1677 55.7955 20.3499C55.483 20.5236 55.2313 20.7753 55.0404 21.1051C54.8581 21.435 54.7669 21.8256 54.7669 22.277C54.7669 22.7283 54.8581 23.1233 55.0404 23.4618C55.2313 23.7917 55.483 24.0477 55.7955 24.23C56.108 24.4036 56.4466 24.4904 56.8111 24.4904ZM64.5377 28.6179C63.7218 28.6179 63.0447 28.4313 62.5065 28.058C61.977 27.6848 61.6211 27.2421 61.4389 26.7299L62.78 26.1701C62.9188 26.5173 63.1402 26.795 63.444 27.0034C63.7565 27.2204 64.1211 27.3289 64.5377 27.3289C65.1453 27.3289 65.6184 27.1466 65.9569 26.782C66.3042 26.4261 66.4778 25.9227 66.4778 25.2717V24.6597H66.3996C66.1826 24.9722 65.8918 25.2196 65.5273 25.4019C65.1714 25.5755 64.7591 25.6623 64.2903 25.6623C63.7348 25.6623 63.2183 25.519 62.7409 25.2326C62.2635 24.9461 61.8816 24.5425 61.5951 24.0217C61.3173 23.4922 61.1785 22.8889 61.1785 22.2119C61.1785 21.5348 61.3173 20.9359 61.5951 20.415C61.8816 19.8856 62.2635 19.4776 62.7409 19.1911C63.2183 18.896 63.7348 18.7484 64.2903 18.7484C64.7504 18.7484 65.1627 18.8396 65.5273 19.0219C65.8918 19.2042 66.1826 19.4515 66.3996 19.764H66.4778V18.9568H67.8449V25.2326C67.8449 25.9531 67.706 26.565 67.4282 27.0685C67.1505 27.5806 66.7599 27.9669 66.2564 28.2273C65.7616 28.4877 65.1887 28.6179 64.5377 28.6179ZM64.5507 24.3602C64.8979 24.3602 65.2191 24.2778 65.5142 24.1128C65.8094 23.9392 66.0437 23.6918 66.2174 23.3707C66.391 23.0408 66.4778 22.6546 66.4778 22.2119C66.4778 21.5348 66.2911 21.0096 65.9179 20.6364C65.5533 20.2545 65.0976 20.0635 64.5507 20.0635C64.1948 20.0635 63.8693 20.1503 63.5742 20.3239C63.2791 20.4888 63.0447 20.7319 62.8711 21.053C62.6975 21.3742 62.6107 21.7605 62.6107 22.2119C62.6107 22.6632 62.6975 23.0495 62.8711 23.3707C63.0447 23.6918 63.2791 23.9392 63.5742 24.1128C63.8693 24.2778 64.1948 24.3602 64.5507 24.3602ZM69.4631 16.2746H70.8953V25.5972H69.4631V16.2746ZM75.4834 25.8055C74.8324 25.8055 74.2465 25.6536 73.7256 25.3498C73.2135 25.046 72.8099 24.6293 72.5147 24.0998C72.2283 23.5616 72.0851 22.9584 72.0851 22.29C72.0851 21.6563 72.224 21.0704 72.5017 20.5322C72.7882 19.9854 73.1831 19.5514 73.6866 19.2302C74.19 18.909 74.7629 18.7484 75.4053 18.7484C76.0737 18.7484 76.6509 18.896 77.137 19.1911C77.6318 19.4863 78.005 19.8899 78.2567 20.402C78.5172 20.9142 78.6474 21.4914 78.6474 22.1337C78.6474 22.2553 78.6343 22.4072 78.6083 22.5895H73.5173C73.5694 23.2058 73.7864 23.6832 74.1683 24.0217C74.559 24.3515 75.0103 24.5165 75.5225 24.5165C75.9304 24.5165 76.282 24.4253 76.5771 24.243C76.8809 24.0521 77.124 23.796 77.3063 23.4748L78.5172 24.0477C78.2047 24.5946 77.7967 25.0243 77.2932 25.3368C76.7898 25.6492 76.1865 25.8055 75.4834 25.8055ZM77.1891 21.4957C77.1717 21.2614 77.0979 21.0313 76.9677 20.8057C76.8375 20.5713 76.6379 20.376 76.3688 20.2197C76.1084 20.0635 75.7872 19.9854 75.4053 19.9854C74.9452 19.9854 74.5546 20.1243 74.2334 20.402C73.921 20.6711 73.7039 21.0357 73.5824 21.4957H77.1891ZM83.1075 16.2746H86.3365C86.8834 16.2746 87.3868 16.3961 87.8469 16.6391C88.3156 16.8822 88.6845 17.2207 88.9536 17.6547C89.2314 18.0887 89.3703 18.5792 89.3703 19.126C89.3703 19.6729 89.2314 20.1633 88.9536 20.5973C88.6845 21.0313 88.3156 21.3699 87.8469 21.6129C87.3868 21.856 86.8834 21.9775 86.3365 21.9775H84.5657V25.5972H83.1075V16.2746ZM86.3626 20.5973C86.6837 20.5973 86.9615 20.5279 87.1959 20.389C87.4302 20.2414 87.6082 20.0548 87.7297 19.8291C87.8512 19.6034 87.912 19.3691 87.912 19.126C87.912 18.883 87.8512 18.6486 87.7297 18.4229C87.6082 18.1972 87.4302 18.015 87.1959 17.8761C86.9615 17.7372 86.6837 17.6677 86.3626 17.6677H84.5657V20.5973H86.3626ZM90.6151 16.2746H92.0474V25.5972H90.6151V16.2746ZM95.685 25.8055C95.2075 25.8055 94.7822 25.7144 94.409 25.5321C94.0357 25.3411 93.7449 25.0764 93.5366 24.7378C93.3283 24.3906 93.2241 24 93.2241 23.566C93.2241 22.8802 93.4802 22.3377 93.9923 21.9384C94.5131 21.5391 95.1685 21.3395 95.9584 21.3395C96.349 21.3395 96.7006 21.3786 97.013 21.4567C97.3255 21.5261 97.5729 21.6042 97.7552 21.691V21.3525C97.7552 20.9445 97.6033 20.6147 97.2995 20.363C96.9957 20.1026 96.6051 19.9724 96.1277 19.9724C95.7891 19.9724 95.468 20.0461 95.1641 20.1937C94.869 20.3413 94.6303 20.5453 94.448 20.8057L93.4455 20.0375C93.7406 19.6295 94.1225 19.3127 94.5912 19.087C95.06 18.8613 95.5808 18.7484 96.1537 18.7484C97.1172 18.7484 97.8594 18.9871 98.3802 19.4646C98.901 19.9333 99.1614 20.5973 99.1614 21.4567V25.5972H97.7552V24.8029H97.6901C97.4991 25.0894 97.23 25.3281 96.8828 25.519C96.5356 25.71 96.1363 25.8055 95.685 25.8055ZM95.9323 24.6206C96.2796 24.6206 96.592 24.5382 96.8698 24.3733C97.1476 24.2083 97.3646 23.987 97.5208 23.7092C97.6771 23.4314 97.7552 23.132 97.7552 22.8108C97.5556 22.698 97.3212 22.6068 97.0521 22.5374C96.7917 22.4679 96.5183 22.4332 96.2318 22.4332C95.6936 22.4332 95.2987 22.5417 95.047 22.7587C94.7952 22.967 94.6694 23.2405 94.6694 23.579C94.6694 23.8828 94.7866 24.1345 95.0209 24.3342C95.2553 24.5252 95.5591 24.6206 95.9323 24.6206ZM102.561 25.2326L99.8008 18.9568H101.402L103.277 23.4748H103.329L105.152 18.9568H106.728L102.626 28.4096H101.116L102.561 25.2326Z" fill="#191919"/>
</svg>
